<?xml version="1.0" encoding="utf-8"?>
<!-- Generator: Adobe Illustrator 19.1.0, SVG Export Plug-In . SVG Version: 6.00 Build 0)  -->
<svg version="1.1" id="图层_1" xmlns="http://www.w3.org/2000/svg" xmlns:xlink="http://www.w3.org/1999/xlink" x="0px" y="0px"
	 viewBox="0 0 288.7 199.5" style="enable-background:new 0 0 288.7 199.5;" xml:space="preserve">
<style type="text/css">
	.st0{fill:#EA9000;stroke:#EA9000;stroke-width:0.25;stroke-miterlimit:10;}
</style>
<path class="st0" d="M153.3,189.1l-5.2,4c-3.9,3-9.6,2.2-12.6-1.7L5.6,21.7c-3-3.9-2.2-9.6,1.7-12.6l5.2-4c3.9-3,9.6-2.2,12.6,1.7
	L155,176.5C158,180.4,157.2,186.1,153.3,189.1z"/>
<path class="st0" d="M136.5,189.1l5.2,4c3.9,3,9.6,2.2,12.6-1.7L284.2,21.7c3-3.9,2.2-9.6-1.7-12.6l-5.2-4c-3.9-3-9.6-2.2-12.6,1.7
	L134.9,176.5C131.9,180.4,132.6,186.1,136.5,189.1z"/>
<ellipse class="st0" cx="144.9" cy="183.6" rx="11.9" ry="12.4"/>
</svg>
